<svg width="36" height="36" viewBox="0 0 36 36" fill="none" xmlns="http://www.w3.org/2000/svg">
<g filter="url(#filter0_b_1066_2276)">
<rect width="36" height="36" rx="18" fill="white" fill-opacity="0.05"/>
<path d="M20.3906 14.625C20.3906 14.5131 20.4351 14.4058 20.5142 14.3267C20.5933 14.2476 20.7006 14.2031 20.8125 14.2031H25.3125C25.4244 14.2031 25.5317 14.2476 25.6108 14.3267C25.6899 14.4058 25.7344 14.5131 25.7344 14.625C25.7344 14.7369 25.6899 14.8442 25.6108 14.9233C25.5317 15.0024 25.4244 15.0469 25.3125 15.0469H20.8125C20.7006 15.0469 20.5933 15.0024 20.5142 14.9233C20.4351 14.8442 20.3906 14.7369 20.3906 14.625ZM26.2969 19.6875C26.2969 19.7994 26.2524 19.9067 26.1733 19.9858C26.0942 20.0649 25.9869 20.1094 25.875 20.1094H20.707C20.8074 20.6612 21.098 21.1604 21.5284 21.5201C21.9587 21.8799 22.5016 22.0773 23.0625 22.0781C23.3766 22.0801 23.6878 22.0189 23.9777 21.8981C24.2676 21.7773 24.5303 21.5994 24.75 21.375C24.83 21.2973 24.9372 21.2538 25.0488 21.2538C25.1604 21.2538 25.2676 21.2973 25.3477 21.375C25.3879 21.4137 25.4198 21.4601 25.4417 21.5115C25.4635 21.5628 25.4748 21.618 25.4748 21.6738C25.4748 21.7296 25.4635 21.7848 25.4417 21.8362C25.4198 21.8875 25.3879 21.934 25.3477 21.9727C24.8181 22.5014 24.1215 22.8301 23.3767 22.9028C22.6319 22.9755 21.885 22.7877 21.2631 22.3714C20.6413 21.955 20.183 21.336 19.9665 20.6196C19.75 19.9033 19.7885 19.1341 20.0756 18.443C20.3626 17.7519 20.8805 17.1817 21.5408 16.8297C22.2011 16.4776 22.9631 16.3654 23.6969 16.5122C24.4307 16.659 25.0909 17.0557 25.565 17.6347C26.0391 18.2137 26.2978 18.9392 26.2969 19.6875ZM25.418 19.2656C25.3217 18.7107 25.0327 18.2076 24.6017 17.845C24.1708 17.4823 23.6257 17.2835 23.0625 17.2835C22.4993 17.2835 21.9542 17.4823 21.5233 17.845C21.0923 18.2076 20.8033 18.7107 20.707 19.2656H25.418ZM18.7031 20.1094C18.7031 20.8553 18.4068 21.5707 17.8794 22.0981C17.3519 22.6256 16.6365 22.9219 15.8906 22.9219H11.25C11.1381 22.9219 11.0308 22.8774 10.9517 22.7983C10.8726 22.7192 10.8281 22.6119 10.8281 22.5V13.5C10.8281 13.3881 10.8726 13.2808 10.9517 13.2017C11.0308 13.1226 11.1381 13.0781 11.25 13.0781H15.0469C15.5531 13.0781 16.0477 13.2298 16.4668 13.5136C16.8859 13.7975 17.2102 14.2005 17.398 14.6706C17.5857 15.1407 17.6282 15.6563 17.5199 16.1508C17.4116 16.6452 17.1576 17.0959 16.7906 17.4445C17.3481 17.6328 17.8325 17.9912 18.1756 18.4693C18.5187 18.9473 18.7032 19.521 18.7031 20.1094ZM11.6719 17.2969H15.0469C15.4944 17.2969 15.9237 17.1191 16.2401 16.8026C16.5566 16.4862 16.7344 16.0569 16.7344 15.6094C16.7344 15.1618 16.5566 14.7326 16.2401 14.4161C15.9237 14.0997 15.4944 13.9219 15.0469 13.9219H11.6719V17.2969ZM17.8594 20.1094C17.8575 19.5878 17.6495 19.0881 17.2807 18.7193C16.9119 18.3505 16.4122 18.1425 15.8906 18.1406H11.6719V22.0781H15.8906C16.4122 22.0763 16.9119 21.8683 17.2807 21.4994C17.6495 21.1306 17.8575 20.6309 17.8594 20.1094Z" fill="#FFFEF6"/>
<rect x="0.5" y="0.5" width="35" height="35" rx="17.5" stroke="white" stroke-opacity="0.15"/>
</g>
<defs>
<filter id="filter0_b_1066_2276" x="-30" y="-30" width="96" height="96" filterUnits="userSpaceOnUse" color-interpolation-filters="sRGB">
<feFlood flood-opacity="0" result="BackgroundImageFix"/>
<feGaussianBlur in="BackgroundImageFix" stdDeviation="15"/>
<feComposite in2="SourceAlpha" operator="in" result="effect1_backgroundBlur_1066_2276"/>
<feBlend mode="normal" in="SourceGraphic" in2="effect1_backgroundBlur_1066_2276" result="shape"/>
</filter>
</defs>
</svg>
