<svg width="36" height="36" viewBox="0 0 36 36" fill="none" xmlns="http://www.w3.org/2000/svg">
<g filter="url(#filter0_b_1066_2273)">
<rect width="36" height="36" rx="18" fill="white" fill-opacity="0.05"/>
<path d="M18 14.7656C17.3603 14.7656 16.735 14.9553 16.2031 15.3107C15.6712 15.6661 15.2566 16.1713 15.0118 16.7623C14.767 17.3533 14.703 18.0036 14.8278 18.631C14.9526 19.2584 15.2606 19.8347 15.713 20.287C16.1653 20.7394 16.7416 21.0474 17.369 21.1722C17.9964 21.297 18.6467 21.233 19.2377 20.9882C19.8287 20.7434 20.3339 20.3288 20.6893 19.7969C21.0447 19.265 21.2344 18.6397 21.2344 18C21.2344 17.1422 20.8936 16.3195 20.287 15.713C19.6805 15.1064 18.8578 14.7656 18 14.7656ZM18 20.3906C17.5272 20.3906 17.065 20.2504 16.6718 19.9877C16.2787 19.725 15.9723 19.3517 15.7914 18.9149C15.6104 18.478 15.5631 17.9973 15.6553 17.5336C15.7476 17.0699 15.9752 16.6439 16.3096 16.3096C16.6439 15.9752 17.0699 15.7476 17.5336 15.6553C17.9973 15.5631 18.478 15.6104 18.9149 15.7914C19.3517 15.9723 19.725 16.2787 19.9877 16.6718C20.2504 17.065 20.3906 17.5272 20.3906 18C20.3888 18.6335 20.1363 19.2404 19.6884 19.6884C19.2404 20.1363 18.6335 20.3888 18 20.3906ZM21.0938 11.1094H14.9062C13.8993 11.1094 12.9335 11.5094 12.2215 12.2215C11.5094 12.9335 11.1094 13.8993 11.1094 14.9062V21.0938C11.1094 22.1007 11.5094 23.0665 12.2215 23.7785C12.9335 24.4906 13.8993 24.8906 14.9062 24.8906H21.0938C22.1007 24.8906 23.0665 24.4906 23.7785 23.7785C24.4906 23.0665 24.8906 22.1007 24.8906 21.0938V14.9062C24.8906 13.8993 24.4906 12.9335 23.7785 12.2215C23.0665 11.5094 22.1007 11.1094 21.0938 11.1094ZM24.0469 21.0938C24.0469 21.877 23.7357 22.6281 23.1819 23.1819C22.6281 23.7357 21.877 24.0469 21.0938 24.0469H14.9062C14.123 24.0469 13.3719 23.7357 12.8181 23.1819C12.2643 22.6281 11.9531 21.877 11.9531 21.0938V14.9062C11.9531 14.123 12.2643 13.3719 12.8181 12.8181C13.3719 12.2643 14.123 11.9531 14.9062 11.9531H21.0938C21.877 11.9531 22.6281 12.2643 23.1819 12.8181C23.7357 13.3719 24.0469 14.123 24.0469 14.9062V21.0938ZM22.3594 14.3438C22.3594 14.4828 22.3181 14.6188 22.2409 14.7344C22.1636 14.85 22.0538 14.9401 21.9253 14.9934C21.7968 15.0466 21.6555 15.0605 21.5191 15.0334C21.3827 15.0062 21.2574 14.9393 21.1591 14.8409C21.0607 14.7426 20.9938 14.6173 20.9666 14.4809C20.9395 14.3445 20.9534 14.2032 21.0066 14.0747C21.0599 13.9462 21.15 13.8364 21.2656 13.7591C21.3812 13.6819 21.5172 13.6406 21.6562 13.6406C21.8427 13.6406 22.0216 13.7147 22.1534 13.8466C22.2853 13.9784 22.3594 14.1573 22.3594 14.3438Z" fill="#FFFEF6"/>
<rect x="0.5" y="0.5" width="35" height="35" rx="17.5" stroke="white" stroke-opacity="0.15"/>
</g>
<defs>
<filter id="filter0_b_1066_2273" x="-30" y="-30" width="96" height="96" filterUnits="userSpaceOnUse" color-interpolation-filters="sRGB">
<feFlood flood-opacity="0" result="BackgroundImageFix"/>
<feGaussianBlur in="BackgroundImageFix" stdDeviation="15"/>
<feComposite in2="SourceAlpha" operator="in" result="effect1_backgroundBlur_1066_2273"/>
<feBlend mode="normal" in="SourceGraphic" in2="effect1_backgroundBlur_1066_2273" result="shape"/>
</filter>
</defs>
</svg>
