<svg width="20" height="20" viewBox="0 0 20 20" fill="none" xmlns="http://www.w3.org/2000/svg">
<path d="M19.1797 5.44535C19.1444 5.36028 19.0848 5.2875 19.0084 5.23609C18.932 5.18468 18.8421 5.15692 18.75 5.15628H16.2812C15.9761 4.59583 15.5272 4.12674 14.9808 3.79721C14.4343 3.46769 13.81 3.28961 13.1719 3.28128C12.2132 3.27712 11.2918 3.65291 10.6095 4.32643C9.92721 4.99995 9.5395 5.91634 9.53125 6.87503V7.55472C6.21875 6.76566 3.48437 4.07035 3.45312 4.04691C3.39289 3.98745 3.31769 3.94541 3.23549 3.92525C3.1533 3.90508 3.06718 3.90755 2.98627 3.93238C2.90536 3.95721 2.83269 4.00349 2.77596 4.06629C2.71923 4.1291 2.68056 4.20609 2.66406 4.2891C1.98437 8.00785 3.10156 10.4922 4.15625 11.9219C4.71562 12.6874 5.40277 13.3508 6.1875 13.8828C4.97656 15.3516 2.98437 16.1172 2.96093 16.125C2.89437 16.1495 2.83437 16.1891 2.78558 16.2406C2.7368 16.2921 2.70056 16.3541 2.67968 16.4219C2.65752 16.4881 2.65092 16.5584 2.6604 16.6275C2.66989 16.6966 2.6952 16.7626 2.73437 16.8203C2.8125 16.9375 3.57812 17.9688 6.25 17.9688C11.6953 17.9688 16.25 13.7578 16.6875 8.3516L19.0781 5.95316C19.1459 5.88967 19.1921 5.80659 19.2103 5.71553C19.2285 5.62448 19.2178 5.53001 19.1797 5.44535ZM15.8984 7.81253C15.8172 7.89361 15.7697 8.0025 15.7656 8.11722C15.4453 13.1172 11.2656 17.0313 6.25 17.0313C5.16406 17.0313 4.46875 16.8438 4.05468 16.6563C4.9375 16.211 6.38281 15.336 7.26562 14.0078C7.30079 13.9528 7.32446 13.8912 7.3352 13.8267C7.34594 13.7623 7.34353 13.6963 7.32812 13.6328C7.31147 13.5679 7.28129 13.5072 7.23955 13.4547C7.19782 13.4021 7.14547 13.359 7.08593 13.3282C7.07031 13.3282 5.89843 12.7188 4.88281 11.3282C3.67187 9.67191 3.19531 7.64847 3.46093 5.31253C4.60156 6.28128 7.0625 8.10941 9.92187 8.58597C9.98917 8.59875 10.0585 8.59638 10.1247 8.57901C10.191 8.56164 10.2526 8.52972 10.3049 8.48558C10.3573 8.44143 10.3992 8.38616 10.4275 8.32379C10.4559 8.26143 10.4699 8.19353 10.4687 8.12503V6.87503C10.4749 6.16705 10.7611 5.49029 11.2646 4.99259C11.7682 4.49488 12.4482 4.21669 13.1562 4.21878C13.6678 4.22617 14.1665 4.38028 14.5931 4.66281C15.0196 4.94533 15.3561 5.34438 15.5625 5.81253C15.5981 5.89675 15.658 5.96846 15.7345 6.01854C15.8111 6.06863 15.9007 6.09482 15.9922 6.09378H17.6172L15.8984 7.81253Z" fill="#FFFEF6"/>
</svg>
