<svg width="36" height="36" viewBox="0 0 36 36" fill="none" xmlns="http://www.w3.org/2000/svg">
<g filter="url(#filter0_b_1066_2269)">
<rect width="36" height="36" rx="18" fill="white" fill-opacity="0.05"/>
<path d="M26.2617 13.9008C26.2299 13.8243 26.1763 13.7587 26.1075 13.7125C26.0388 13.6662 25.9579 13.6412 25.875 13.6407H23.6531C23.3785 13.1363 22.9745 12.7141 22.4827 12.4175C21.9909 12.1209 21.4289 11.9606 20.8547 11.9532C19.9918 11.9494 19.1626 12.2876 18.5486 12.8938C17.9345 13.5 17.5855 14.3247 17.5781 15.1875V15.7992C14.5969 15.0891 12.1359 12.6633 12.1078 12.6422C12.0536 12.5887 11.9859 12.5509 11.9119 12.5327C11.838 12.5146 11.7605 12.5168 11.6876 12.5391C11.6148 12.5615 11.5494 12.6031 11.4984 12.6597C11.4473 12.7162 11.4125 12.7855 11.3976 12.8602C10.7859 16.2071 11.7914 18.443 12.7406 19.7297C13.2441 20.4187 13.8625 21.0157 14.5687 21.4946C13.4789 22.8164 11.6859 23.5055 11.6648 23.5125C11.6049 23.5346 11.5509 23.5702 11.507 23.6165C11.4631 23.6629 11.4305 23.7187 11.4117 23.7797C11.3918 23.8392 11.3858 23.9026 11.3944 23.9648C11.4029 24.027 11.4257 24.0864 11.4609 24.1383C11.5312 24.2438 12.2203 25.1719 14.625 25.1719C19.5258 25.1719 23.625 21.3821 24.0187 16.5164L26.1703 14.3578C26.2313 14.3007 26.2729 14.2259 26.2893 14.144C26.3057 14.062 26.296 13.977 26.2617 13.9008ZM23.3086 16.0313C23.2354 16.1042 23.1927 16.2023 23.1891 16.3055C22.9008 20.8055 19.139 24.3282 14.625 24.3282C13.6476 24.3282 13.0219 24.1594 12.6492 23.9907C13.4437 23.5899 14.7445 22.8024 15.5391 21.6071C15.5707 21.5575 15.592 21.5021 15.6017 21.4441C15.6113 21.3861 15.6092 21.3267 15.5953 21.2696C15.5803 21.2111 15.5531 21.1564 15.5156 21.1092C15.478 21.0619 15.4309 21.0231 15.3773 20.9953C15.3633 20.9953 14.3086 20.4469 13.3945 19.1953C12.3047 17.7047 11.8758 15.8836 12.1148 13.7813C13.1414 14.6532 15.3562 16.2985 17.9297 16.7274C17.9902 16.7389 18.0526 16.7367 18.1123 16.7211C18.1719 16.7055 18.2273 16.6768 18.2744 16.637C18.3216 16.5973 18.3593 16.5475 18.3848 16.4914C18.4103 16.4353 18.4229 16.3742 18.4219 16.3125V15.1875C18.4274 14.5503 18.6849 13.9413 19.1381 13.4933C19.5914 13.0454 20.2034 12.795 20.8406 12.7969C21.301 12.8036 21.7499 12.9423 22.1338 13.1965C22.5177 13.4508 22.8205 13.8099 23.0062 14.2313C23.0383 14.3071 23.0922 14.3716 23.1611 14.4167C23.2299 14.4618 23.3107 14.4853 23.393 14.4844H24.8555L23.3086 16.0313Z" fill="#FFFEF6"/>
<rect x="0.5" y="0.5" width="35" height="35" rx="17.5" stroke="white" stroke-opacity="0.15"/>
</g>
<defs>
<filter id="filter0_b_1066_2269" x="-30" y="-30" width="96" height="96" filterUnits="userSpaceOnUse" color-interpolation-filters="sRGB">
<feFlood flood-opacity="0" result="BackgroundImageFix"/>
<feGaussianBlur in="BackgroundImageFix" stdDeviation="15"/>
<feComposite in2="SourceAlpha" operator="in" result="effect1_backgroundBlur_1066_2269"/>
<feBlend mode="normal" in="SourceGraphic" in2="effect1_backgroundBlur_1066_2269" result="shape"/>
</filter>
</defs>
</svg>
